<?xml version="1.0" encoding="iso-8859-1"?>
<!-- Generator: Adobe Illustrator 22.0.1, SVG Export Plug-In . SVG Version: 6.00 Build 0)  -->
<svg version="1.1" id="Icons" xmlns="http://www.w3.org/2000/svg" xmlns:xlink="http://www.w3.org/1999/xlink" x="0px" y="0px"
	 viewBox="0 0 512 512" style="enable-background:new 0 0 512 512;" xml:space="preserve">
<g>
	<path id="XMLID_66_" style="fill:#29A4FC;" d="M512,255.904c0,70.692-28.654,134.692-74.981,181.019S326.692,511.904,256,511.904
		S121.308,483.25,74.981,436.924S0,326.597,0,255.904S28.654,121.212,74.981,74.885S185.308-0.096,256-0.096
		s134.692,28.654,181.019,74.981S512,185.212,512,255.904z"/>
	<g id="XMLID_1764_">
		<path id="XMLID_1828_" style="fill:#E6A170;" d="M418.318,210.68v115.678v115.678c0,6.004-1.929,11.438-5.049,15.372
			c-3.119,3.934-7.429,6.366-12.191,6.366H294.359H187.64c-4.761,0-9.071-2.433-12.191-6.366c-3.119-3.934-5.049-9.368-5.049-15.372
			V304.408V166.779c0-3.975,1.279-7.575,3.345-10.181s4.921-4.218,8.074-4.218h30.037h30.037c3.152,0,6.007,1.612,8.074,4.218
			c2.067,2.606,3.345,6.206,3.345,10.181v9.011v9.011c0,2.427,0.782,4.627,2.045,6.22c1.263,1.593,3.008,2.579,4.933,2.579h72.241
			h72.241c3.739,0,7.126,1.912,9.577,5.004C416.802,201.695,418.318,205.965,418.318,210.68z"/>
		<path id="XMLID_1827_" style="fill:#DBDBDB;" d="M391.35,68.476v103.309v103.309H272.82H154.29V171.785V68.476
			c0-2.638,1.069-5.025,2.797-6.753c1.728-1.728,4.116-2.797,6.753-2.797h108.98H381.8c2.638,0,5.025,1.069,6.753,2.797
			C390.282,63.451,391.35,65.838,391.35,68.476z"/>
		<g id="XMLID_1820_">
			<path id="XMLID_1826_" style="fill:#DBDBDB;" d="M371.397,42.328v103.309v103.309H242.699H114V145.637V42.328
				c0-2.638,1.069-5.025,2.797-6.753s4.116-2.797,6.753-2.797h119.149h119.149c2.638,0,5.025,1.069,6.753,2.797
				C370.329,37.303,371.397,39.69,371.397,42.328z"/>
			<path id="XMLID_1825_" style="fill:#FFFFFF;" d="M371.397,42.328v103.309v103.309h-118.53h-118.53V145.637V42.328
				c0-2.638,1.069-5.025,2.797-6.753c1.728-1.728,4.116-2.797,6.753-2.797h108.98h108.98c2.638,0,5.025,1.069,6.753,2.797
				C370.329,37.303,371.397,39.69,371.397,42.328z"/>
			<path id="XMLID_1824_" style="fill:#D6D6D6;" d="M213.949,131.175H182.67h-31.279c-3.544,0-6.752-1.436-9.075-3.759
				c-2.322-2.322-3.759-5.531-3.759-9.075V92.133V65.924c0-3.544,1.436-6.752,3.759-9.075c2.322-2.322,5.531-3.759,9.075-3.759
				h31.279h31.279c3.544,0,6.752,1.436,9.075,3.759c2.322,2.322,3.759,5.531,3.759,9.075v26.209v26.209
				c0,3.544-1.436,6.752-3.759,9.075C220.701,129.739,217.492,131.175,213.949,131.175z"/>
			
				<polyline id="XMLID_1823_" style="fill:none;stroke:#1F3D5C;stroke-width:8;stroke-linecap:round;stroke-miterlimit:10;" points="
				271.761,71.888 298.138,71.888 324.514,71.888 			"/>
			
				<polyline id="XMLID_1822_" style="fill:none;stroke:#1F3D5C;stroke-width:8;stroke-linecap:round;stroke-miterlimit:10;" points="
				242.883,106.753 298.138,106.753 353.392,106.753 			"/>
			
				<polyline id="XMLID_1821_" style="fill:none;stroke:#1F3D5C;stroke-width:8;stroke-linecap:round;stroke-miterlimit:10;" points="
				242.883,144.482 298.138,144.482 353.392,144.482 			"/>
		</g>
		<path id="XMLID_1774_" style="fill:#FDB67A;" d="M418.318,236.343v103.949v103.949c0,5.395-2.186,10.279-5.721,13.813
			s-8.418,5.721-13.813,5.721H256H113.216c-5.395,0-10.279-2.186-13.813-5.721c-3.535-3.535-5.721-8.418-5.721-13.813V320.568
			V196.894c0-3.572,1.449-6.807,3.791-9.148s5.576-3.791,9.148-3.791h55.895h55.895c3.572,0,6.807,1.449,9.148,3.791
			c2.342,2.342,3.791,5.576,3.791,9.148v8.097v8.097c0,2.181,0.886,4.158,2.317,5.589c1.431,1.431,3.408,2.317,5.589,2.317h81.857
			h81.857c4.237,0,8.074,1.719,10.852,4.496C416.6,228.269,418.318,232.106,418.318,236.343z"/>
		<path id="XMLID_1773_" style="fill:#FDC679;" d="M418.318,236.343v103.949v103.949c0,5.395-2.186,10.279-5.721,13.813
			s-8.418,5.721-13.813,5.721H277.859H156.935c-5.395,0-10.279-2.186-13.813-5.721s-5.721-8.418-5.721-13.813V320.568V196.894
			c0-3.572,1.449-6.807,3.791-9.148s5.576-3.791,9.148-3.791h34.036h34.036c3.572,0,6.807,1.449,9.148,3.791
			c2.342,2.342,3.791,5.576,3.791,9.148v8.097v8.097c0,2.181,0.886,4.158,2.317,5.589c1.431,1.431,3.408,2.317,5.589,2.317h81.857
			h81.857c4.237,0,8.074,1.719,10.852,4.496C416.6,228.269,418.318,232.106,418.318,236.343z"/>
		<g id="XMLID_1765_">
			<g id="XMLID_1769_">
				<path id="XMLID_1772_" style="fill:#D4D2D2;" d="M342.453,349.815c0,20.412-7.575,39.056-20.067,53.274
					c-12.492,14.218-29.9,24.01-49.566,26.717c-1.817,0.255-3.655,0.447-5.51,0.575c-1.855,0.128-3.728,0.192-5.615,0.192
					c-22.299,0-42.488-9.04-57.103-23.655c-14.615-14.615-23.655-34.804-23.655-57.103c0-22.299,9.04-42.488,23.655-57.103
					c14.615-14.615,34.804-23.655,57.103-23.655c1.887,0,3.76,0.064,5.615,0.192c1.855,0.128,3.693,0.319,5.51,0.575
					c19.666,2.707,37.074,12.499,49.566,26.717C334.878,310.759,342.453,329.403,342.453,349.815z"/>
				<path id="XMLID_1771_" style="fill:#FFFFFF;" d="M342.453,349.815c0,20.412-7.575,39.056-20.067,53.274
					c-12.492,14.218-29.9,24.01-49.566,26.717c-19.666-2.707-37.074-12.499-49.566-26.717
					c-12.492-14.218-20.067-32.862-20.067-53.274c0-20.412,7.575-39.056,20.067-53.274c12.492-14.218,29.9-24.01,49.566-26.717
					c19.666,2.707,37.074,12.499,49.566,26.717C334.878,310.759,342.453,329.403,342.453,349.815z"/>
			</g>
			<g id="XMLID_1766_">
				<path id="XMLID_1768_" style="fill:#C23C4D;" d="M317.963,335.987v13.828v13.828c0,2.632-1.068,5.016-2.794,6.742
					s-4.11,2.794-6.743,2.794h-6.914h-6.914c-2.632,0-5.016,1.068-6.743,2.794c-1.726,1.726-2.794,4.11-2.794,6.743v6.914v6.914
					c0,2.632-1.068,5.016-2.794,6.742c-1.726,1.726-4.11,2.794-6.743,2.794h-13.828h-13.828c-2.632,0-5.016-1.068-6.743-2.794
					c-1.726-1.726-2.794-4.11-2.794-6.742v-6.914v-6.914c0-2.632-1.068-5.016-2.794-6.743c-1.726-1.726-4.11-2.794-6.743-2.794
					h-6.914h-6.914c-2.632,0-5.016-1.068-6.743-2.794c-1.726-1.726-2.794-4.11-2.794-6.742v-13.828v-13.828
					c0-2.632,1.068-5.016,2.794-6.743c1.726-1.726,4.11-2.794,6.743-2.794h6.914h6.914c2.632,0,5.016-1.068,6.743-2.794
					c1.726-1.726,2.794-4.11,2.794-6.742v-6.914v-6.914c0-2.632,1.068-5.016,2.794-6.743c1.726-1.726,4.11-2.794,6.743-2.794h13.828
					h13.828c2.632,0,5.016,1.068,6.743,2.794c1.726,1.726,2.794,4.11,2.794,6.743v6.914v6.914c0,2.632,1.068,5.016,2.794,6.742
					s4.11,2.794,6.743,2.794h6.914h6.914c2.632,0,5.016,1.068,6.743,2.794C316.894,330.97,317.963,333.355,317.963,335.987z"/>
				<path id="XMLID_1767_" style="fill:#F94755;" d="M317.963,335.987v13.828v13.828c0,2.632-1.068,5.016-2.794,6.742
					s-4.11,2.794-6.743,2.794h-6.914h-6.914c-2.632,0-5.016,1.068-6.743,2.794c-1.726,1.726-2.794,4.11-2.794,6.743v6.914v6.914
					c0,2.632-1.068,5.016-2.794,6.742c-1.726,1.726-4.11,2.794-6.743,2.794h-3.338h-3.338c-2.632,0-5.016-1.068-6.743-2.794
					c-1.726-1.726-2.794-4.11-2.794-6.742v-6.914v-6.914c0-2.632-1.068-5.016-2.794-6.743c-1.726-1.726-4.11-2.794-6.743-2.794
					h-6.914h-6.914c-2.632,0-5.016-1.068-6.743-2.794c-1.726-1.726-2.794-4.11-2.794-6.742v-13.828v-13.828
					c0-2.632,1.068-5.016,2.794-6.743c1.726-1.726,4.11-2.794,6.743-2.794h6.914h6.914c2.632,0,5.016-1.068,6.743-2.794
					s2.794-4.11,2.794-6.742v-6.914v-6.914c0-2.632,1.068-5.016,2.794-6.743c1.726-1.726,4.11-2.794,6.743-2.794h3.338h3.338
					c2.632,0,5.016,1.068,6.743,2.794c1.726,1.726,2.794,4.11,2.794,6.743v6.914v6.914c0,2.632,1.068,5.016,2.794,6.742
					s4.11,2.794,6.743,2.794h6.914h6.914c2.632,0,5.016,1.068,6.743,2.794C316.894,330.97,317.963,333.355,317.963,335.987z"/>
			</g>
		</g>
	</g>
</g>
</svg>
