<svg xmlns="http://www.w3.org/2000/svg" viewBox="0 0 128 128"><defs><style>.cls-1{fill:#ececec;}.cls-2{fill:#e0d5ce;}.cls-3{fill:#474444;}.cls-4{fill:#f74141;}.cls-5{fill:#c1b3ac;}.cls-6{fill:#383434;}</style></defs><title>icon32.0c</title><g id="doctor_recipe" data-name="doctor recipe"><path class="cls-1" d="M14.947,93.223V10.583a5,5,0,0,1,5-5h84.106a5,5,0,0,1,5,5V117.417a5,5,0,0,1-5,5H43.927a6,6,0,0,1-4.258-1.772L16.689,97.45A6,6,0,0,1,14.947,93.223Z"/><path class="cls-2" d="M62,5.583H19.947a5,5,0,0,0-5,5v82.64a6,6,0,0,0,1.742,4.227l22.98,23.195a6,6,0,0,0,4.258,1.772H62Z"/><path class="cls-3" d="M83.991,61.62H40.009a2,2,0,0,1,0-4H83.991a2,2,0,0,1,0,4Z"/><path class="cls-3" d="M83.991,44.6H40.009a2,2,0,0,1,0-4H83.991a2,2,0,0,1,0,4Z"/><path class="cls-3" d="M83.991,27.583H40.009a2,2,0,0,1,0-4H83.991a2,2,0,0,1,0,4Z"/><path class="cls-4" d="M97.053,97.175v3.464a1.863,1.863,0,0,1-1.862,1.863H90.069a.931.931,0,0,0-.932.931v5.122a1.861,1.861,0,0,1-1.862,1.862H83.811a1.862,1.862,0,0,1-1.863-1.862v-5.122a.931.931,0,0,0-.931-.931H75.9a1.863,1.863,0,0,1-1.863-1.863V97.175A1.863,1.863,0,0,1,75.9,95.312h5.122a.931.931,0,0,0,.931-.931V89.259A1.863,1.863,0,0,1,83.811,87.4h3.464a1.862,1.862,0,0,1,1.862,1.863v5.122a.931.931,0,0,0,.932.931h5.122A1.863,1.863,0,0,1,97.053,97.175Z"/><path class="cls-5" d="M36.794,94.935H15.2a6.006,6.006,0,0,0,1.491,2.515l22.98,23.195a6.011,6.011,0,0,0,2.125,1.374V99.935A5,5,0,0,0,36.794,94.935Z"/><path class="cls-6" d="M62,27.583v-4H40.009a2,2,0,0,0,0,4Z"/><path class="cls-6" d="M62,44.6v-4H40.009a2,2,0,0,0,0,4Z"/><path class="cls-6" d="M62,61.62v-4H40.009a2,2,0,0,0,0,4Z"/></g></svg>